<?xml version="1.0" encoding="UTF-8"?>
<svg version="1.1" xmlns="http://www.w3.org/2000/svg" width="593" height="593">
<path d="M0 0 C195.69 0 391.38 0 593 0 C593 195.69 593 391.38 593 593 C397.31 593 201.62 593 0 593 C0 397.31 0 201.62 0 0 Z " fill="#F6F7F7" transform="translate(0,0)"/>
<path d="M0 0 C195.69 0 391.38 0 593 0 C593 195.69 593 391.38 593 593 C397.31 593 201.62 593 0 593 C0 397.31 0 201.62 0 0 Z M218 35 C216.92121582 35.3412793 215.84243164 35.68255859 214.73095703 36.03417969 C182.53229661 46.44615972 153.6475119 62.2714398 127 83 C126.40864258 83.45858398 125.81728516 83.91716797 125.20800781 84.38964844 C107.62711388 98.23840269 89.68928651 115.53103493 77 134 C76.40993164 134.84288574 75.81986328 135.68577148 75.21191406 136.55419922 C47.88053588 175.7632324 29.28066583 219.25094908 24 267 C23.9064624 267.75144287 23.8129248 268.50288574 23.71655273 269.27709961 C22.59369551 279.44951904 22.71248555 289.71595384 22.6875 299.9375 C22.68488159 300.96000854 22.68226318 301.98251709 22.67956543 303.03601074 C22.67499368 319.7248395 23.70748015 335.6034234 27 352 C27.1654834 352.86882812 27.3309668 353.73765625 27.50146484 354.6328125 C29.4314845 364.67442343 32.15491359 374.39842373 35.37646484 384.09716797 C35.97828717 385.93373931 36.5464501 387.78123559 37.11328125 389.62890625 C46.11029724 418.28950358 61.31641025 445.56687818 80 469 C81.27214367 470.66566672 82.54312224 472.33222446 83.8125 474 C86.34021827 477.24823609 89.04911642 480.1247801 92 483 C93.00994403 484.15806915 94.00937339 485.32536387 95 486.5 C99.04406863 491.2643862 103.4099717 495.43720563 108.25390625 499.375 C110 501 110 501 111.90625 503.421875 C117.37214133 510.15226358 124.99348324 515.11586878 132.0625 520.0625 C132.62251709 520.45663086 133.18253418 520.85076172 133.75952148 521.25683594 C136.61600384 523.36656673 136.61600384 523.36656673 140 524 C140.34224609 524.88945313 140.34224609 524.88945313 140.69140625 525.796875 C142.35844697 528.60347489 144.12905365 529.61689463 146.9375 531.25 C147.81277344 531.77078125 148.68804687 532.2915625 149.58984375 532.828125 C152.00300531 534.21863729 152.00300531 534.21863729 155 534 C155.33 534.99 155.66 535.98 156 537 C157.51665535 538.20369794 157.51665535 538.20369794 159.4375 539.19921875 C160.51874146 539.79972046 160.51874146 539.79972046 161.62182617 540.41235352 C162.40662354 540.83315186 163.1914209 541.2539502 164 541.6875 C165.2207019 542.35060181 165.2207019 542.35060181 166.46606445 543.02709961 C203.14465531 562.74215285 243.75255528 576.12182655 285.703125 576.16796875 C286.78398376 576.17129715 287.86484253 576.17462555 288.97845459 576.17805481 C291.25076883 576.18308441 293.52309036 576.18546437 295.79541016 576.18530273 C299.22701497 576.18748538 302.65829574 576.20567364 306.08984375 576.22460938 C317.59173444 576.25451085 328.64585136 575.97823931 340 574 C341.87217496 573.72375932 343.74455876 573.44892883 345.6171875 573.17578125 C365.33948816 570.02036077 384.71116007 565.1258185 403 557 C404.58457223 556.31365618 406.16921213 555.62746859 407.75390625 554.94140625 C431.71927393 544.46478062 456.42340524 531.60176283 476 514 C476 513.34 476 512.68 476 512 C476.57363281 511.74347656 477.14726562 511.48695313 477.73828125 511.22265625 C492.82231132 503.06842238 506.68365982 485.37691849 516.72607422 471.72265625 C518.02634022 469.96438165 519.3557982 468.23153929 520.69140625 466.5 C531.51426893 452.31439502 540.51969216 436.89272011 548.15478516 420.78027344 C548.94775013 419.11005374 549.76031676 417.44918021 550.57421875 415.7890625 C555.05783908 406.44524481 558.59567877 396.77767049 562 387 C562.24137695 386.3100293 562.48275391 385.62005859 562.73144531 384.90917969 C567.54926618 370.93818843 570.27632582 356.46726281 572.52929688 341.8828125 C572.82151078 340.09315388 573.14360806 338.30777765 573.51196289 336.53222656 C575.43867874 326.80424454 575.35190316 317.12403233 575.3125 307.25 C575.31026428 305.8707132 575.31026428 305.8707132 575.3079834 304.46356201 C575.37825065 264.30113929 575.37825065 264.30113929 565 226 C564.41015625 223.8046875 564.41015625 223.8046875 564.0625 221.875 C562.82786171 215.78622827 560.88289752 209.91376065 559 204 C558.34 204 557.68 204 557 204 C556.89042969 203.33613281 556.78085937 202.67226562 556.66796875 201.98828125 C555.76732537 196.97250306 554.79791172 193.30447957 552 189 C551.39388222 187.53002277 550.81384006 186.04920649 550.25 184.5625 C547.63605073 177.8132013 544.29981026 171.43277618 541 165 C540.34 165 539.68 165 539 165 C538.896875 164.278125 538.79375 163.55625 538.6875 162.8125 C537.93206053 159.72206579 536.84468685 157.58256159 535 155 C534.34 155 533.68 155 533 155 C532.34 153.02 531.68 151.04 531 149 C530.34 149 529.68 149 529 149 C528.5978125 147.9171875 528.5978125 147.9171875 528.1875 146.8125 C526.02244707 141.68474307 522.89066995 137.37693075 519.5625 132.9375 C518.41974609 131.40416016 518.41974609 131.40416016 517.25390625 129.83984375 C515.28681886 127.36138182 513.24521217 125.2183234 511 123 C509.69326883 121.38708914 508.40286959 119.76087197 507.125 118.125 C499.07230702 108.1955637 489.78889233 99.20932106 480 91 C479.14921875 90.24009766 479.14921875 90.24009766 478.28125 89.46484375 C475.12760791 86.66240271 471.91821056 84.23326618 468.375 81.9375 C464.79888066 79.61605304 461.94191238 77.10535195 459 74 C455.94472869 71.31732275 453.9065846 69.91153641 450 69 C448.99273762 68.00731551 447.99354363 67.00641495 447 66 C403.51754847 37.57732437 350.90051955 23.25998994 299.1875 23.5 C298.17929199 23.50143005 297.17108398 23.50286011 296.13232422 23.5043335 C269.48611815 23.59704419 243.47991063 26.93398784 218 35 Z " fill="#F6F7F7" transform="translate(0,0)"/>
<path d="M0 0 C0.96740112 -0.00440094 1.93480225 -0.00880188 2.93151855 -0.01333618 C31.73816874 -0.06812379 59.70606709 4.87296424 87 13.9375 C88.04000153 14.28083374 88.04000153 14.28083374 89.10101318 14.63110352 C98.30666985 17.69263722 107.06164422 21.28424326 115.8125 25.5 C117.44369317 26.24962749 119.07637098 26.99603814 120.7109375 27.73828125 C128.48232345 31.32084106 136.08785524 35.04367114 143.4375 39.4375 C144.38761963 40.00368042 144.38761963 40.00368042 145.35693359 40.58129883 C149.68019624 43.23539248 149.68019624 43.23539248 150.8125 45.5 C151.493125 45.7475 152.17375 45.995 152.875 46.25 C158.08583107 48.46737492 162.37589286 52.02747768 166.3125 56.0625 C168.94414588 58.62835473 171.56769942 60.29728999 174.75 62.09375 C177.45067532 63.93511953 179.52455153 66.16295392 181.8125 68.5 C183.01876618 69.633992 184.23150258 70.7611248 185.44921875 71.8828125 C195.24928695 80.92708208 204.67803399 89.96089895 212.5234375 100.80859375 C213.91012486 102.70632111 213.91012486 102.70632111 216.25 104.9375 C221.72643421 110.41393421 226.29360043 116.60295684 229.8125 123.5 C229.8125 124.16 229.8125 124.82 229.8125 125.5 C230.8025 125.83 231.7925 126.16 232.8125 126.5 C233.1425 128.15 233.4725 129.8 233.8125 131.5 C234.4725 131.5 235.1325 131.5 235.8125 131.5 C239.8125 138.125 239.8125 138.125 239.8125 141.5 C240.4725 141.5 241.1325 141.5 241.8125 141.5 C243.42005587 144.68580147 245.02292174 147.8739409 246.625 151.0625 C247.07681641 151.95775391 247.52863281 152.85300781 247.99414062 153.77539062 C251.18932327 160.14243341 254.23230432 166.48290812 256.5 173.25 C256.87705078 174.35601562 256.87705078 174.35601562 257.26171875 175.484375 C257.8125 177.5 257.8125 177.5 257.8125 180.5 C258.4725 180.5 259.1325 180.5 259.8125 180.5 C262.55173069 188.24721351 265.18198437 195.75071031 266.2578125 203.9375 C266.99303932 207.33404082 268.44461411 210.30942353 269.8125 213.5 C275.97928235 235.85458601 276.09500566 260.52045277 276.1875 283.5625 C276.19914688 284.8903653 276.19914688 284.8903653 276.21102905 286.24505615 C276.28893791 297.47254426 275.31164309 307.52683687 272.8125 318.5 C272.42187112 320.91662865 272.09972988 323.33251568 271.78808594 325.76025391 C269.47883688 343.71368684 264.60456075 360.93589638 257.60449219 377.60595703 C256.89586497 379.30063335 256.21552965 381.00707545 255.5390625 382.71484375 C252.38674371 390.59564073 248.62826761 398.15005627 244.74414062 405.68994141 C243.9619147 407.20970634 243.19059401 408.73507736 242.421875 410.26171875 C231.31996368 431.5626751 216.58645372 451.35115562 199.8125 468.5 C199.15217773 469.17546875 198.49185547 469.8509375 197.81152344 470.546875 C195.67288885 472.72567634 193.52644729 474.89635202 191.375 477.0625 C190.70041748 477.7419165 190.02583496 478.42133301 189.33081055 479.12133789 C179.91918715 488.5 179.91918715 488.5 176.8125 488.5 C176.8125 489.16 176.8125 489.82 176.8125 490.5 C174.53983548 492.40561238 172.26111658 494.18292143 169.875 495.9375 C169.15570313 496.47028564 168.43640625 497.00307129 167.6953125 497.55200195 C149.23421839 511.07587321 129.63080429 522.06197832 108.8125 531.5 C107.26175781 532.20769531 107.26175781 532.20769531 105.6796875 532.9296875 C77.2619181 545.31692031 45.20053718 552.63363543 14.1796875 552.66796875 C13.10357208 552.67129715 12.02745667 552.67462555 10.91873169 552.67805481 C8.6548098 552.68308511 6.3908806 552.68546435 4.12695312 552.68530273 C0.71731929 552.68748095 -2.69198603 552.70565634 -6.1015625 552.72460938 C-21.79227142 552.76579328 -36.86908305 551.88336063 -52.25 548.625 C-53.50393555 548.36456909 -53.50393555 548.36456909 -54.78320312 548.09887695 C-57.25417652 547.57828821 -59.721289 547.04265831 -62.1875 546.5 C-62.8872998 546.34805176 -63.58709961 546.19610352 -64.30810547 546.03955078 C-91.11290333 540.11854955 -117.16657527 528.94886523 -140.66796875 514.859375 C-141.34110107 514.45686523 -142.0142334 514.05435547 -142.70776367 513.63964844 C-143.19607666 513.26356445 -143.68438965 512.88748047 -144.1875 512.5 C-144.1875 511.84 -144.1875 511.18 -144.1875 510.5 C-144.90292969 510.40589844 -145.61835938 510.31179688 -146.35546875 510.21484375 C-149.6570953 509.38146767 -151.73400916 508.03352459 -154.5 506.0625 C-155.38300781 505.44503906 -156.26601562 504.82757812 -157.17578125 504.19140625 C-157.83964844 503.63324219 -158.50351563 503.07507813 -159.1875 502.5 C-159.1875 501.84 -159.1875 501.18 -159.1875 500.5 C-160.2703125 500.11134766 -160.2703125 500.11134766 -161.375 499.71484375 C-169.09358837 496.38084239 -175.64381979 490.23522222 -182.0625 484.875 C-182.59746094 484.4322876 -183.13242188 483.9895752 -183.68359375 483.53344727 C-187.2937879 480.470098 -190.19678005 477.16786409 -193.1875 473.5 C-194.85020287 472.16172696 -196.51666181 470.82810215 -198.1875 469.5 C-199.54136936 467.84997172 -200.87428142 466.1825613 -202.1875 464.5 C-204.58753753 462.03842304 -207.03948042 459.64255577 -209.515625 457.2578125 C-212.40719612 454.27323763 -214.95732549 451.15516019 -217.5 447.875 C-217.93505859 447.32199219 -218.37011719 446.76898438 -218.81835938 446.19921875 C-225.84805167 437.19716674 -232.34065644 428.01729304 -238.0625 418.125 C-238.6618335 417.09205811 -239.26116699 416.05911621 -239.87866211 414.99487305 C-247.86248984 401.0474277 -254.77328401 386.63609286 -260.1875 371.5 C-260.58195312 370.49195313 -260.97640625 369.48390625 -261.3828125 368.4453125 C-270.66185288 344.10971602 -276.26009526 316.55181032 -276.390625 290.47265625 C-276.39759399 289.53419357 -276.40456299 288.5957309 -276.41174316 287.62882996 C-276.42907935 284.60667406 -276.43546565 281.58470359 -276.4375 278.5625 C-276.43850708 277.53177368 -276.43951416 276.50104736 -276.44055176 275.43908691 C-276.43008286 259.61196342 -275.96029869 244.12388399 -273.1875 228.5 C-273.04828125 227.71028809 -272.9090625 226.92057617 -272.765625 226.10693359 C-271.79287144 220.84348119 -270.556219 215.67331107 -269.1875 210.5 C-268.92388672 209.49984863 -268.66027344 208.49969727 -268.38867188 207.46923828 C-267.50249587 204.14211328 -266.59954452 200.82012372 -265.6875 197.5 C-265.40293945 196.46093506 -265.11837891 195.42187012 -264.82519531 194.35131836 C-262.99967127 187.87403851 -260.79693245 181.69928749 -258.1875 175.5 C-257.54142909 173.90113765 -256.89559687 172.30217882 -256.25 170.703125 C-247.79696224 150.22076428 -237.2168795 131.41539681 -224.1875 113.5 C-223.73632812 112.87770508 -223.28515625 112.25541016 -222.8203125 111.61425781 C-216.82108986 103.41077534 -210.24744396 95.8001161 -203.1875 88.5 C-202.0428125 87.31446533 -202.0428125 87.31446533 -200.875 86.10498047 C-191.05451274 75.98695939 -181.31521607 66.0034195 -169.86767578 57.72265625 C-168.06776882 56.41287217 -166.29720907 55.06881275 -164.52734375 53.71875 C-138.27106984 33.83724563 -108.4721893 20.31126889 -77.1875 10.5 C-76.39811035 10.24831055 -75.6087207 9.99662109 -74.79541016 9.73730469 C-50.51429817 2.14164692 -25.29833886 0.02758071 0 0 Z M-94.1875 51.5 C-95.05246094 51.87769531 -95.91742188 52.25539063 -96.80859375 52.64453125 C-99.61991003 53.89354101 -102.40586211 55.18615044 -105.1875 56.5 C-105.78578613 56.78214355 -106.38407227 57.06428711 -107.00048828 57.35498047 C-121.08575224 64.04858138 -133.68510584 72.17197258 -146.1875 81.5 C-147.30268394 82.31086145 -148.41859936 83.12071765 -149.53515625 83.9296875 C-150.6486872 84.74445052 -151.7619736 85.55954787 -152.875 86.375 C-153.88949219 87.11492187 -154.90398437 87.85484375 -155.94921875 88.6171875 C-156.68785156 89.23851562 -157.42648438 89.85984375 -158.1875 90.5 C-158.1875 91.16 -158.1875 91.82 -158.1875 92.5 C-158.71859375 92.71398437 -159.2496875 92.92796875 -159.796875 93.1484375 C-163.09774869 95.01461772 -165.69854185 97.53745552 -168.4375 100.125 C-169.0159668 100.66697021 -169.59443359 101.20894043 -170.19042969 101.76733398 C-171.8618207 103.33899275 -173.5256783 104.91823457 -175.1875 106.5 C-175.950625 107.22058594 -176.71375 107.94117188 -177.5 108.68359375 C-182.87902011 113.89994188 -187.54606348 119.62700487 -192.1875 125.5 C-192.59790527 126.01224121 -193.00831055 126.52448242 -193.43115234 127.05224609 C-199.67145097 134.84961577 -205.14982107 142.8569234 -210.1875 151.5 C-210.54166992 152.09087402 -210.89583984 152.68174805 -211.26074219 153.29052734 C-244.35793565 208.51580911 -252.34941948 275.34078958 -236.87670898 337.37695312 C-233.24880142 351.42831934 -228.60502448 364.48686967 -222.1875 377.5 C-221.53891352 378.83586518 -220.89047816 380.17180374 -220.2421875 381.5078125 C-210.25043076 401.94964083 -198.36586787 420.52327283 -183.1875 437.5 C-182.71393066 438.02996582 -182.24036133 438.55993164 -181.75244141 439.10595703 C-165.31110555 457.41650631 -147.22126663 472.69704243 -126.1875 485.5 C-125.49736816 485.9213623 -124.80723633 486.34272461 -124.09619141 486.77685547 C-87.38250572 508.88448515 -44.54015145 520.76107014 -1.75 520.6875 C-1.04341248 520.68656342 -0.33682495 520.68562683 0.39117432 520.68466187 C33.23183897 520.59064614 64.57264339 514.36770085 94.8125 501.5 C95.86171631 501.06349121 95.86171631 501.06349121 96.93212891 500.61816406 C121.04838682 490.55863472 143.30451286 476.29932392 162.5390625 458.58984375 C164.65880212 456.64128585 166.81733469 454.75242667 169 452.875 C176.42618905 446.36965839 182.69402277 439.24188341 188.8125 431.5 C189.30556641 430.88334473 189.79863281 430.26668945 190.30664062 429.63134766 C198.7154764 419.08401326 206.1264815 408.21541607 212.8125 396.5 C213.21452637 395.79907227 213.61655273 395.09814453 214.03076172 394.37597656 C220.38542082 383.17605368 225.34147939 371.56486144 229.8125 359.5 C230.05983887 358.83790527 230.30717773 358.17581055 230.56201172 357.49365234 C236.83968098 340.4529841 240.50044136 322.47956175 242.8125 304.5 C242.9067627 303.81437988 243.00102539 303.12875977 243.09814453 302.42236328 C248.58673113 256.7505492 239.71700615 210.75553191 219.8125 169.5 C218.95978516 167.71335938 218.95978516 167.71335938 218.08984375 165.890625 C201.88110241 133.82937838 177.7983356 104.72754503 148.8125 83.5 C147.82378906 82.72785156 146.83507812 81.95570312 145.81640625 81.16015625 C128.05688753 67.36292059 107.02618787 55.90941852 85.8125 48.5 C84.16377934 47.81945331 82.51783322 47.13213848 80.875 46.4375 C72.10282874 42.9143678 62.90859988 40.51840569 53.60546875 38.89453125 C51.8125 38.5 51.8125 38.5 50.8125 37.5 C49.39774867 37.21484764 47.97165182 36.98545059 46.54296875 36.78125 C45.65287109 36.65363281 44.76277344 36.52601562 43.84570312 36.39453125 C42.90662109 36.26433594 41.96753906 36.13414063 41 36 C39.65518555 35.80470703 39.65518555 35.80470703 38.28320312 35.60546875 C25.17794194 33.75597359 12.21552788 33.25931705 -1 33.25 C-2.29549271 33.24898788 -2.29549271 33.24898788 -3.61715698 33.24795532 C-34.76059629 33.28649874 -65.6161796 38.76145068 -94.1875 51.5 Z " fill="#2F888A" transform="translate(299.1875,23.5)"/>
<path d="M0 0 C21.12 0 42.24 0 64 0 C64 2.31 64 4.62 64 7 C44.86 7 25.72 7 6 7 C6 27.79 6 48.58 6 70 C-8 70 -8 70 -11.45703125 67.359375 C-12.68530273 65.63061523 -12.68530273 65.63061523 -13.8125 63.75 C-14.24570557 63.119729 -14.67891113 62.48945801 -15.12524414 61.84008789 C-16.01389909 60.54568261 -16.88482288 59.2389197 -17.73730469 57.92041016 C-19.66810165 54.98389645 -21.8028223 52.22926904 -23.9375 49.4375 C-24.97197266 48.04337891 -24.97197266 48.04337891 -26.02734375 46.62109375 C-27.39177984 44.80814995 -28.80452957 43.03093925 -30.25390625 41.28515625 C-32 39 -32 39 -32 37 C-32.66 37 -33.32 37 -34 37 C-34 47.89 -34 58.78 -34 70 C-36.31 70 -38.62 70 -41 70 C-41.33 71.98 -41.66 73.96 -42 76 C-62.46 76 -82.92 76 -104 76 C-104.71559687 71.70641881 -105.12282806 68.25525321 -105.11352539 63.99462891 C-105.11344986 62.83387848 -105.11337433 61.67312805 -105.11329651 60.47720337 C-105.10813522 59.23949188 -105.10297394 58.0017804 -105.09765625 56.7265625 C-105.0962413 55.44768158 -105.09482635 54.16880066 -105.09336853 52.85116577 C-105.08873022 49.46788664 -105.07976081 46.08467614 -105.06866455 42.70141602 C-105.05839515 39.24235637 -105.05380414 35.78328939 -105.04882812 32.32421875 C-105.03866799 25.54944077 -105.01908987 18.77478223 -105 12 C-89.82 12 -74.64 12 -59 12 C-59 15.96 -59 19.92 -59 24 C-69.23 24 -79.46 24 -90 24 C-90 27.63 -90 31.26 -90 35 C-81.09 35 -72.18 35 -63 35 C-63 38.63 -63 42.26 -63 46 C-71.91 46 -80.82 46 -90 46 C-90 49.63 -90 53.26 -90 57 C-79.44 57 -68.88 57 -58 57 C-58 60.96 -58 64.92 -58 69 C-54.7 69 -51.4 69 -48 69 C-48 50.19 -48 31.38 -48 12 C-34 12 -34 12 -29.875 16 C-28.56353241 17.9870721 -27.27478924 19.98920037 -26 22 C-23.95696489 24.78075905 -21.84809743 27.51065931 -19.75 30.25 C-18.74133042 31.58593535 -17.73599138 32.9243934 -16.734375 34.265625 C-16.30350586 34.84086914 -15.87263672 35.41611328 -15.42871094 36.00878906 C-13.55139661 38.62522372 -11.78627583 41.32058625 -10 44 C-9.67 33.11 -9.34 22.22 -9 11 C-6.36 11 -3.72 11 -1 11 C-1.020625 9.741875 -1.04125 8.48375 -1.0625 7.1875 C-1.10886083 4.35948913 -0.91692961 2.75078884 0 0 Z " fill="#103945" transform="translate(286,243)"/>
<path d="M0 0 C4.74375 -0.061875 9.4875 -0.12375 14.375 -0.1875 C16.58775635 -0.22846802 16.58775635 -0.22846802 18.84521484 -0.27026367 C28.97392138 -0.3338673 37.8847051 0.43047556 46 7 C50.97351695 12.64561384 51.40521618 16.21847958 51.34765625 23.66015625 C50.69746078 29.90641609 47.76091998 33.4347378 43.1875 37.5 C42.465625 37.995 41.74375 38.49 41 39 C43.03842927 43.35580149 45.67649529 47.34949432 48.25390625 51.3984375 C51 55.78414034 51 55.78414034 51 58 C39.97200581 59.31064997 39.97200581 59.31064997 35 58 C31.46100487 54.84579607 29.75235258 51.35735993 28 47 C27.61585938 46.05511719 27.23171875 45.11023438 26.8359375 44.13671875 C26.42214844 43.07904297 26.42214844 43.07904297 26 42 C22.7 42 19.4 42 16 42 C16 47.61 16 53.22 16 59 C10.72 59 5.44 59 0 59 C0 39.53 0 20.06 0 0 Z " fill="#163543" transform="translate(356,254)"/>
<path d="M0 0 C5.28 0 10.56 0 16 0 C29.42139122 29.33608436 29.42139122 29.33608436 35.0546875 43.6796875 C36.35270804 46.86573793 37.79767638 49.97892186 39.265625 53.08984375 C40 55 40 55 40 58 C34.72 58 29.44 58 24 58 C21 50.375 21 50.375 21 47 C12.42 47 3.84 47 -5 47 C-5.99 50.3 -6.98 53.6 -8 57 C-12.95 57 -17.9 57 -23 57 C-21.8750532 50.25031918 -21.8750532 50.25031918 -20.40527344 46.92919922 C-20.08113464 46.18757538 -19.75699585 45.44595154 -19.42303467 44.68185425 C-19.07202698 43.89738922 -18.72101929 43.11292419 -18.359375 42.3046875 C-17.99531555 41.47599152 -17.6312561 40.64729553 -17.25616455 39.79348755 C-16.09384019 37.15111615 -14.92227095 34.51297161 -13.75 31.875 C-12.5966943 29.2637418 -11.44532963 26.65163491 -10.29431152 24.03936768 C-9.55167921 22.35408904 -8.80828276 20.66914689 -8.06408691 18.98455811 C-5.28809833 12.69053965 -2.61248385 6.36401066 0 0 Z " fill="#143541" transform="translate(435,255)"/>
<path d="M0 0 C15.18 0 30.36 0 46 0 C46 3.96 46 7.92 46 12 C35.77 12 25.54 12 15 12 C15 15.63 15 19.26 15 23 C23.91 23 32.82 23 42 23 C42 26.63 42 30.26 42 34 C33.09 34 24.18 34 15 34 C15 37.96 15 41.92 15 46 C25.23 46 35.46 46 46 46 C46 49.63 46 53.26 46 57 C30.82 57 15.64 57 0 57 C0 38.19 0 19.38 0 0 Z " fill="#0F313D" transform="translate(181,255)"/>
<path d="M0 0 C0.99 0.66 1.98 1.32 3 2 C1.68773508 6.23962514 0.01806376 10.05233556 -2 14 C-2.9178125 13.6390625 -3.835625 13.278125 -4.78125 12.90625 C-14.11684189 9.25772019 -14.11684189 9.25772019 -24 9 C-24.66 9.66 -25.32 10.32 -26 11 C-26.04760471 13.54961512 -26.04760471 13.54961512 -25 16 C-22.94103324 17.3427576 -22.94103324 17.3427576 -20.30078125 18.0625 C-19.33849609 18.38476562 -18.37621094 18.70703125 -17.38476562 19.0390625 C-16.37091797 19.35617187 -15.35707031 19.67328125 -14.3125 20 C-2.04726307 23.91088566 -2.04726307 23.91088566 3 29 C5.09182531 33.18365063 4.42935408 38.44407619 4 43 C1.45423715 48.28010073 -2.17985483 51.82985021 -7.6171875 54.0859375 C-11.74092201 55.20020294 -15.49688275 55.38391639 -19.75 55.375 C-20.54696289 55.37338867 -21.34392578 55.37177734 -22.16503906 55.37011719 C-31.14478809 55.1835725 -37.83083611 52.28254181 -45 47 C-43.43358249 42.69235185 -41.31663844 38.93828536 -39 35 C-38.25234375 35.42152344 -37.5046875 35.84304688 -36.734375 36.27734375 C-35.74953125 36.82519531 -34.7646875 37.37304688 -33.75 37.9375 C-32.77546875 38.48277344 -31.8009375 39.02804687 -30.796875 39.58984375 C-26.47544761 41.76866398 -23.13759952 42.13788411 -18.3125 42.125 C-17.33925781 42.12757813 -16.36601562 42.13015625 -15.36328125 42.1328125 C-13.04362389 42.26572962 -13.04362389 42.26572962 -12 41 C-11.95936168 39.33382885 -11.957279 37.66611905 -12 36 C-16.41510836 33.94646123 -20.74151544 32.49254687 -25.4375 31.1875 C-31.68664244 29.30843758 -37.5654932 26.84991773 -41.17578125 21.140625 C-43.08181839 16.19034844 -43.09598465 10.51284694 -40.97265625 5.64453125 C-31.92623703 -7.71209326 -13.04646516 -6.53515805 0 0 Z " fill="#13323F" transform="translate(168,258)"/>
<path d="M0 0 C21.12 0 42.24 0 64 0 C64 2.31 64 4.62 64 7 C44.86 7 25.72 7 6 7 C6 27.79 6 48.58 6 70 C-8 70 -8 70 -11.45703125 67.359375 C-12.68530273 65.63061523 -12.68530273 65.63061523 -13.8125 63.75 C-14.24570557 63.119729 -14.67891113 62.48945801 -15.12524414 61.84008789 C-16.01389909 60.54568261 -16.88482288 59.2389197 -17.73730469 57.92041016 C-19.66810165 54.98389645 -21.8028223 52.22926904 -23.9375 49.4375 C-24.97197266 48.04337891 -24.97197266 48.04337891 -26.02734375 46.62109375 C-27.97023618 44.03954757 -29.96901546 41.51260504 -32 39 C-31.01 38.505 -31.01 38.505 -30 38 C-27.89282227 38.88037109 -27.89282227 38.88037109 -25.31640625 40.2734375 C-24.38892578 40.7684375 -23.46144531 41.2634375 -22.50585938 41.7734375 C-21.53455078 42.30195313 -20.56324219 42.83046875 -19.5625 43.375 C-17.64814029 44.40551475 -15.73281673 45.43424153 -13.81640625 46.4609375 C-12.53938843 47.15388916 -12.53938843 47.15388916 -11.23657227 47.86083984 C-8.92722263 49.10691531 -8.92722263 49.10691531 -6 50 C-5.90912109 48.30230469 -5.90912109 48.30230469 -5.81640625 46.5703125 C-5.73200083 45.08852855 -5.64735283 43.6067584 -5.5625 42.125 C-5.52318359 41.37863281 -5.48386719 40.63226563 -5.44335938 39.86328125 C-5.11328125 34.2265625 -5.11328125 34.2265625 -4 32 C-3.781346 30.48181898 -3.60981021 28.95666749 -3.46484375 27.4296875 C-3.37783203 26.53378906 -3.29082031 25.63789063 -3.20117188 24.71484375 C-3.11416016 23.77769531 -3.02714844 22.84054687 -2.9375 21.875 C-2.84662109 20.93011719 -2.75574219 19.98523438 -2.66210938 19.01171875 C-2.43785901 16.67479389 -2.21730943 14.33757884 -2 12 C-4.31 12 -6.62 12 -9 12 C-9 11.67 -9 11.34 -9 11 C-6.36 11 -3.72 11 -1 11 C-1.020625 9.741875 -1.04125 8.48375 -1.0625 7.1875 C-1.10886083 4.35948913 -0.91692961 2.75078884 0 0 Z " fill="#41CFC4" transform="translate(286,243)"/>
<path d="M0 0 C16.83 0 33.66 0 51 0 C51 3.96 51 7.92 51 12 C45.06 12 39.12 12 33 12 C33 27.18 33 42.36 33 58 C28.05 58 23.1 58 18 58 C18 42.82 18 27.64 18 12 C12.06 12 6.12 12 0 12 C0 8.04 0 4.08 0 0 Z " fill="#133441" transform="translate(298,255)"/>
<path d="M0 0 C3.91606575 0.53400897 6.39338934 1.19669467 10 3 C9.67 13.89 9.34 24.78 9 36 C6.69 36 4.38 36 2 36 C1.67 37.98 1.34 39.96 1 42 C-19.46 42 -39.92 42 -61 42 C-61.33 39.69 -61.66 37.38 -62 35 C-46.82 35 -31.64 35 -16 35 C-16 31.37 -16 27.74 -16 24 C-26.23 24 -36.46 24 -47 24 C-47 23.67 -47 23.34 -47 23 C-36.44 23 -25.88 23 -15 23 C-15 26.96 -15 30.92 -15 35 C-11.7 35 -8.4 35 -5 35 C-5 32.03 -5 29.06 -5 26 C-4.34 26 -3.68 26 -3 26 C-3.04125 24.989375 -3.0825 23.97875 -3.125 22.9375 C-3.13842858 15.47121201 -2.36129277 7.08387831 0 0 Z " fill="#2D8085" transform="translate(243,277)"/>
<path d="M0 0 C3.526875 -0.12375 3.526875 -0.12375 7.125 -0.25 C7.85348145 -0.28641602 8.58196289 -0.32283203 9.33251953 -0.36035156 C14.37215686 -0.44509729 17.25059699 0.66974924 21 4 C21.76171875 6.21875 21.76171875 6.21875 21.6875 8.5 C21.69330078 9.62921875 21.69330078 9.62921875 21.69921875 10.78125 C20.62469574 14.19090961 19.06353012 15.21495096 16 17 C13.20026066 17.45809362 10.51434463 17.3803411 7.6875 17.25 C5.150625 17.1675 2.61375 17.085 0 17 C0 11.39 0 5.78 0 0 Z " fill="#EFF1F1" transform="translate(371,267)"/>
<path d="M0 0 C2.31 0 4.62 0 7 0 C6.86145912 3.29201643 6.71292976 6.58350709 6.5625 9.875 C6.52318359 10.81214844 6.48386719 11.74929688 6.44335938 12.71484375 C6.40146484 13.61074219 6.35957031 14.50664062 6.31640625 15.4296875 C6.27974854 16.25710449 6.24309082 17.08452148 6.20532227 17.93701172 C6 20 6 20 5 22 C4.60772162 24.70872518 4.25430502 27.40751693 3.9375 30.125 C3.84662109 30.87910156 3.75574219 31.63320313 3.66210938 32.41015625 C3.43809148 34.27304188 3.21861427 36.13647252 3 38 C-0.44669625 37.42655667 -3.22188165 36.56138422 -6.3125 34.9375 C-7.00988281 34.57527344 -7.70726562 34.21304688 -8.42578125 33.83984375 C-8.94527344 33.56269531 -9.46476562 33.28554688 -10 33 C-8.515 32.505 -8.515 32.505 -7 32 C-6.67 31.34 -6.34 30.68 -6 30 C-5.01 29.67 -4.02 29.34 -3 29 C-2.34 29.99 -1.68 30.98 -1 32 C-0.67 21.44 -0.34 10.88 0 0 Z " fill="#16434C" transform="translate(277,255)"/>
<path d="M0 0 C2.64 0 5.28 0 8 0 C8 0.66 8 1.32 8 2 C8.66 2.33 9.32 2.66 10 3 C10 2.01 10 1.02 10 0 C11.45792884 -0.05399736 12.91642712 -0.09279177 14.375 -0.125 C15.18710938 -0.14820313 15.99921875 -0.17140625 16.8359375 -0.1953125 C19 0 19 0 21 2 C20.94140625 3.875 20.94140625 3.875 20.5625 6 C19.94303456 9.10060539 19.94303456 9.10060539 21 12 C19.0625 11.625 19.0625 11.625 17 11 C16.67 10.34 16.34 9.68 16 9 C15.01 8.67 14.02 8.34 13 8 C13 9.32 13 10.64 13 12 C10.00519083 12.8723412 7.36424089 13.10829766 4.25 13.0625 C2.14625 13.0315625 2.14625 13.0315625 0 13 C0 8.71 0 4.42 0 0 Z " fill="#E5E7EA" transform="translate(153,332)"/>
<path d="M0 0 C0.66 0.33 1.32 0.66 2 1 C3.37342831 1.0689472 4.75002102 1.08467708 6.125 1.0625 C8.043125 1.0315625 8.043125 1.0315625 10 1 C10 1.66 10 2.32 10 3 C8.02 3 6.04 3 4 3 C4 3.99 4 4.98 4 6 C5.98 6 7.96 6 10 6 C10 6.66 10 7.32 10 8 C8.02 8 6.04 8 4 8 C4 8.99 4 9.98 4 11 C6.31 11 8.62 11 11 11 C11 11.66 11 12.32 11 13 C7.7 13 4.4 13 1 13 C1 12.34 1 11.68 1 11 C0.01 11.66 -0.98 12.32 -2 13 C-5.5625 13.25 -5.5625 13.25 -9 13 C-11 11 -11 11 -11.3125 7.5625 C-11 4 -11 4 -10 2 C-6.64494663 0.32247331 -3.62468805 1.34636773 0 2 C0 1.34 0 0.68 0 0 Z " fill="#EBECED" transform="translate(187,331)"/>
<path d="M0 0 C0.66 -0.33 1.32 -0.66 2 -1 C3.54023996 -1.06950541 5.08334988 -1.08452357 6.625 -1.0625 C7.85089844 -1.04896484 7.85089844 -1.04896484 9.1015625 -1.03515625 C10.04128906 -1.01775391 10.04128906 -1.01775391 11 -1 C11 -0.34 11 0.32 11 1 C8.69 1 6.38 1 4 1 C4 1.99 4 2.98 4 4 C5.98 4 7.96 4 10 4 C10 4.66 10 5.32 10 6 C8.02 6 6.04 6 4 6 C4 6.99 4 7.98 4 9 C6.31 9 8.62 9 11 9 C11 9.66 11 10.32 11 11 C7.7 11 4.4 11 1 11 C0.67 10.34 0.34 9.68 0 9 C-0.66 9.66 -1.32 10.32 -2 11 C-5.5 11.25 -5.5 11.25 -9 11 C-11 9 -11 9 -11.3125 5.5625 C-11 2 -11 2 -10 0 C-6.681572 -1.659214 -3.60735024 -0.57259528 0 0 Z " fill="#E3E5E8" transform="translate(318,333)"/>
<path d="M0 0 C0.33 -0.33 0.66 -0.66 1 -1 C2.51928038 -1.07179964 4.04167482 -1.08392007 5.5625 -1.0625 C6.38878906 -1.05347656 7.21507812 -1.04445313 8.06640625 -1.03515625 C8.70449219 -1.02355469 9.34257812 -1.01195312 10 -1 C10 -0.34 10 0.32 10 1 C8.02 1 6.04 1 4 1 C4 1.99 4 2.98 4 4 C5.98 4 7.96 4 10 4 C10 4.66 10 5.32 10 6 C8.02 6 6.04 6 4 6 C4 6.99 4 7.98 4 9 C5.98 9 7.96 9 10 9 C10 9.66 10 10.32 10 11 C7.03 11 4.06 11 1 11 C0.67 10.34 0.34 9.68 0 9 C-0.66 9.66 -1.32 10.32 -2 11 C-5.10347254 11.33015665 -7.15781176 11.50531294 -9.875 9.875 C-11.52854531 7.11909116 -11.39365568 5.14924548 -11 2 C-8.6467663 -2.5593903 -4.28857965 -0.6917064 0 0 Z " fill="#EBEEEF" transform="translate(355,333)"/>
<path d="M0 0 C16.83 0 33.66 0 51 0 C51 0.33 51 0.66 51 1 C47.7 1.33 44.4 1.66 41 2 C42.60681641 2.07347656 42.60681641 2.07347656 44.24609375 2.1484375 C45.64325639 2.22345294 47.0403905 2.2990013 48.4375 2.375 C49.14455078 2.4059375 49.85160156 2.436875 50.58007812 2.46875 C52.39239188 2.57280629 54.19817988 2.77919892 56 3 C56.495 3.99 56.495 3.99 57 5 C40.17 5 23.34 5 6 5 C6 4.67 6 4.34 6 4 C17.88 3.01 17.88 3.01 30 2 C15.15 1.505 15.15 1.505 0 1 C0 0.67 0 0.34 0 0 Z " fill="#CBD7DA" transform="translate(292,250)"/>
<path d="M0 0 C0.66 0 1.32 0 2 0 C3.00605593 2.60197202 4.00502525 5.20629362 5 7.8125 C5.28617187 8.55048828 5.57234375 9.28847656 5.8671875 10.04882812 C6.13789063 10.76103516 6.40859375 11.47324219 6.6875 12.20703125 C7.06455078 13.18893433 7.06455078 13.18893433 7.44921875 14.19067383 C8 16 8 16 8 19 C3.38 19 -1.24 19 -6 19 C-5.26246428 14.57478567 -4.82162248 12.16558208 -3 8.375 C-1.67254269 5.59319607 -0.6551147 3.01625729 0 0 Z " fill="#E6E8E8" transform="translate(442,271)"/>
<path d="M0 0 C4.29 0 8.58 0 13 0 C13 3.3 13 6.6 13 10 C14.98 10 16.96 10 19 10 C19 10.99 19 11.98 19 13 C16.03 13 13.06 13 10 13 C9.67 10.69 9.34 8.38 9 6 C8.67 6.33 8.34 6.66 8 7 C6.00041636 7.04080783 3.99954746 7.04254356 2 7 C2 7.99 2 8.98 2 10 C4.31 10 6.62 10 9 10 C9 10.66 9 11.32 9 12 C6.03 12 3.06 12 0 12 C0 8.04 0 4.08 0 0 Z " fill="#EBEDEE" transform="translate(271,332)"/>
<path d="M0 0 C0.66 0 1.32 0 2 0 C2 9.57 2 19.14 2 29 C0.02 29 -1.96 29 -4 29 C-4.18577598 23.09555472 -3.47379047 17.51552046 -2.5625 11.6875 C-2.42779297 10.78193359 -2.29308594 9.87636719 -2.15429688 8.94335938 C-1.13375235 2.2675047 -1.13375235 2.2675047 0 0 Z " fill="#153846" transform="translate(250,283)"/>
<path d="M0 0 C2.15502531 3.23253796 2.46856135 4.25150923 2 8 C0.9375 9.8125 0.9375 9.8125 -1 11 C-4.5625 11.375 -4.5625 11.375 -8 11 C-10.31282587 7.53076119 -10.42478586 6.07794425 -10 2 C-7.65569181 -2.27491494 -4.20074737 -1.06928115 0 0 Z " fill="#465862" transform="translate(436,333)"/>
<path d="M0 0 C6.0546875 -0.1953125 6.0546875 -0.1953125 8 0 C8.66 0.66 9.32 1.32 10 2 C9.94140625 3.875 9.94140625 3.875 9.5625 6 C8.94303456 9.10060539 8.94303456 9.10060539 10 12 C8.0625 11.625 8.0625 11.625 6 11 C5.67 10.34 5.34 9.68 5 9 C4.01 8.67 3.02 8.34 2 8 C2 9.32 2 10.64 2 12 C1.34 12 0.68 12 0 12 C0 8.04 0 4.08 0 0 Z " fill="#53636D" transform="translate(164,332)"/>
<path d="M0 0 C6.4738255 -0.36644295 6.4738255 -0.36644295 8.75 1.21875 C10.42557409 3.60644307 10.1402636 4.84743741 9.6875 7.6875 C9.50767578 8.89986328 9.50767578 8.89986328 9.32421875 10.13671875 C9.21722656 10.75160156 9.11023438 11.36648438 9 12 C8.01 11.67 7.02 11.34 6 11 C5.67 10.34 5.34 9.68 5 9 C4.01 8.67 3.02 8.34 2 8 C2 9.32 2 10.64 2 12 C1.34 12 0.68 12 0 12 C0 8.04 0 4.08 0 0 Z " fill="#4C5E69" transform="translate(440,332)"/>
<path d="M0 0 C4.62 0 9.24 0 14 0 C14 0.33 14 0.66 14 1 C9.71 1 5.42 1 1 1 C1.14335629 4.68761169 1.28914954 8.37508785 1.4375 12.0625 C1.48116699 13.15691406 1.52483398 14.25132812 1.56982422 15.37890625 C1.82052278 21.43135837 2.15291745 27.46102189 2.625 33.5 C2.99314773 38.53512819 2.91156687 43.03702483 2 48 C1.34 48 0.68 48 0 48 C0 32.16 0 16.32 0 0 Z " fill="#2B4C59" transform="translate(238,255)"/>
<path d="M0 0 C0.99 0 1.98 0 3 0 C3.433125 0.9590625 3.433125 0.9590625 3.875 1.9375 C4.82823451 4.15206079 4.82823451 4.15206079 7 5 C7.66 3.35 8.32 1.7 9 0 C9.99 0 10.98 0 12 0 C12 3.96 12 7.92 12 12 C11.34 12 10.68 12 10 12 C10 9.69 10 7.38 10 5 C9.34 5 8.68 5 8 5 C7.67 6.65 7.34 8.3 7 10 C6.34 10 5.68 10 5 10 C4.34 9.01 3.68 8.02 3 7 C2.67 8.65 2.34 10.3 2 12 C1.34 12 0.68 12 0 12 C0 8.04 0 4.08 0 0 Z " fill="#4A626F" transform="translate(138,332)"/>
<path d="M0 0 C0.99 0 1.98 0 3 0 C5 3 5 3 5 6 C5.66 6 6.32 6 7 6 C7.66 4.02 8.32 2.04 9 0 C9.99 0 10.98 0 12 0 C12 3.96 12 7.92 12 12 C11.34 12 10.68 12 10 12 C9.67 10.02 9.34 8.04 9 6 C8.34 7.32 7.68 8.64 7 10 C6.34 10 5.68 10 5 10 C4.34 8.68 3.68 7.36 3 6 C2.67 7.98 2.34 9.96 2 12 C1.34 12 0.68 12 0 12 C0 8.04 0 4.08 0 0 Z " fill="#3E525F" transform="translate(452,332)"/>
<path d="M0 0 C0.99 0 1.98 0 3 0 C5.1875 3 5.1875 3 7 6 C7.33 4.02 7.66 2.04 8 0 C8.66 0 9.32 0 10 0 C10 3.96 10 7.92 10 12 C6 10 6 10 4 7 C3.67 8.65 3.34 10.3 3 12 C2.01 12 1.02 12 0 12 C0 8.04 0 4.08 0 0 Z " fill="#4E5F6A" transform="translate(331,332)"/>
<path d="M0 0 C3.375 -0.125 3.375 -0.125 7 0 C9 2 9 2 9.1875 4.5625 C9 7 9 7 8 8 C6.00041636 8.04080783 3.99954746 8.04254356 2 8 C2 9.32 2 10.64 2 12 C1.34 12 0.68 12 0 12 C0 8.04 0 4.08 0 0 Z " fill="#495F6A" transform="translate(373,332)"/>
<path d="M0 0 C0.99 0 1.98 0 3 0 C3.67354499 1.43429001 4.33859701 2.87257057 5 4.3125 C5.556875 5.51326172 5.556875 5.51326172 6.125 6.73828125 C7 9 7 9 7 12 C6.34 12 5.68 12 5 12 C5 11.34 5 10.68 5 10 C2.69 10 0.38 10 -2 10 C-2 10.66 -2 11.32 -2 12 C-2.66 12 -3.32 12 -4 12 C-3.33501617 7.61110675 -1.81242323 4.0188515 0 0 Z " fill="#314855" transform="translate(398,332)"/>
<path d="M0 0 C2.97 0 5.94 0 9 0 C9 0.66 9 1.32 9 2 C7.02 2 5.04 2 3 2 C3 2.99 3 3.98 3 5 C4.98 5 6.96 5 9 5 C9 5.66 9 6.32 9 7 C7.02 7 5.04 7 3 7 C3 7.99 3 8.98 3 10 C4.98 10 6.96 10 9 10 C9 10.66 9 11.32 9 12 C6.03 12 3.06 12 0 12 C0 8.04 0 4.08 0 0 Z " fill="#4D6472" transform="translate(126,332)"/>
<path d="M0 0 C0.99 0 1.98 0 3 0 C5.1875 3 5.1875 3 7 6 C7.33 4.02 7.66 2.04 8 0 C8.66 0 9.32 0 10 0 C10 3.96 10 7.92 10 12 C6.23312136 10.11656068 5.20578354 9.30867531 3 6 C2.67 7.98 2.34 9.96 2 12 C1.34 12 0.68 12 0 12 C0 8.04 0 4.08 0 0 Z " fill="#3E5260" transform="translate(247,332)"/>
<path d="M0 0 C3.76687864 1.88343932 4.79421646 2.69132469 7 6 C7.33 4.02 7.66 2.04 8 0 C8.66 0 9.32 0 10 0 C10 3.96 10 7.92 10 12 C6.23312136 10.11656068 5.20578354 9.30867531 3 6 C2.67 7.98 2.34 9.96 2 12 C1.34 12 0.68 12 0 12 C0 8.04 0 4.08 0 0 Z " fill="#435562" transform="translate(200,332)"/>
<path d="M0 0 C0 0.66 0 1.32 0 2 C-0.969375 1.979375 -1.93875 1.95875 -2.9375 1.9375 C-5.87465895 1.64381501 -5.87465895 1.64381501 -7 3 C-7.04063832 4.66617115 -7.042721 6.33388095 -7 8 C-5.35 8.33 -3.7 8.66 -2 9 C-2 8.34 -2 7.68 -2 7 C-2.99 6.67 -3.98 6.34 -5 6 C-5 5.67 -5 5.34 -5 5 C-3.02 5 -1.04 5 1 5 C0.125 9.875 0.125 9.875 -1 11 C-4.4375 11.1875 -4.4375 11.1875 -8 11 C-10 9 -10 9 -10.3125 5.5625 C-10 2 -10 2 -8.9375 0 C-5.86664787 -1.58495594 -3.27813225 -0.68036707 0 0 Z " fill="#52636D" transform="translate(186,333)"/>
<path d="M0 0 C0.33 0 0.66 0 1 0 C0.67 3.96 0.34 7.92 0 12 C-3.85006136 11.22998773 -6.00776573 10.6738858 -9.3125 8.9375 C-10.00988281 8.57527344 -10.70726562 8.21304687 -11.42578125 7.83984375 C-12.20501953 7.42412109 -12.20501953 7.42412109 -13 7 C-12.01 6.67 -11.02 6.34 -10 6 C-9.67 5.34 -9.34 4.68 -9 4 C-8.01 3.67 -7.02 3.34 -6 3 C-5.01 4.485 -5.01 4.485 -4 6 C-3.360625 5.01 -2.72125 4.02 -2.0625 3 C-1.381875 2.01 -0.70125 1.02 0 0 Z " fill="#175057" transform="translate(280,281)"/>
<path d="M0 0 C2.97 0 5.94 0 9 0 C9 0.66 9 1.32 9 2 C6.69 2 4.38 2 2 2 C2 2.99 2 3.98 2 5 C3.98 5 5.96 5 8 5 C8 5.66 8 6.32 8 7 C6.02 7 4.04 7 2 7 C2 7.99 2 8.98 2 10 C4.31 10 6.62 10 9 10 C9 10.66 9 11.32 9 12 C6.03 12 3.06 12 0 12 C0 8.04 0 4.08 0 0 Z " fill="#495A65" transform="translate(320,332)"/>
<path d="M0 0 C2.64 0 5.28 0 8 0 C8 0.33 8 0.66 8 1 C5.69 1 3.38 1 1 1 C0.67 2.98 0.34 4.96 0 7 C-12.87 7 -25.74 7 -39 7 C-39 6.67 -39 6.34 -39 6 C-27.78 5.67 -16.56 5.34 -5 5 C-4.67 4.01 -4.34 3.02 -4 2 C-2.68 2.66 -1.36 3.32 0 4 C0 2.68 0 1.36 0 0 Z " fill="#439899" transform="translate(244,312)"/>
<path d="M0 0 C2.64 0 5.28 0 8 0 C8 0.66 8 1.32 8 2 C6.02 2 4.04 2 2 2 C2 2.99 2 3.98 2 5 C3.98 5 5.96 5 8 5 C8 5.66 8 6.32 8 7 C6.02 7 4.04 7 2 7 C2 7.99 2 8.98 2 10 C4.31 10 6.62 10 9 10 C9 10.66 9 11.32 9 12 C6.03 12 3.06 12 0 12 C0 8.04 0 4.08 0 0 Z " fill="#4A5C68" transform="translate(189,332)"/>
<path d="M0 0 C2.64 0 5.28 0 8 0 C8 0.66 8 1.32 8 2 C6.02 2 4.04 2 2 2 C2 2.99 2 3.98 2 5 C3.98 5 5.96 5 8 5 C8 5.66 8 6.32 8 7 C6.02 7 4.04 7 2 7 C2 7.99 2 8.98 2 10 C4.31 10 6.62 10 9 10 C9 10.66 9 11.32 9 12 C6.03 12 3.06 12 0 12 C0 8.04 0 4.08 0 0 Z " fill="#465B68" transform="translate(271,332)"/>
<path d="M0 0 C5.47932789 1.54545146 10.11429181 4.15543212 15 7 C14.54625 7.433125 14.0925 7.86625 13.625 8.3125 C11.79975666 10.10798342 11.79975666 10.10798342 10 13 C8.51511559 11.40112446 7.03726855 9.79571095 5.5625 8.1875 C4.32693359 6.84751953 4.32693359 6.84751953 3.06640625 5.48046875 C1 3 1 3 0 0 Z " fill="#39C8B9" transform="translate(254,281)"/>
<path d="M0 0 C0 0.66 0 1.32 0 2 C-0.969375 1.979375 -1.93875 1.95875 -2.9375 1.9375 C-5.87465895 1.64381501 -5.87465895 1.64381501 -7 3 C-7.04063832 4.66617115 -7.042721 6.33388095 -7 8 C-5.35 8.33 -3.7 8.66 -2 9 C-2 8.01 -2 7.02 -2 6 C-2.66 5.67 -3.32 5.34 -4 5 C-2.68 5 -1.36 5 0 5 C0.042721 6.66611905 0.04063832 8.33382885 0 10 C-1 11 -1 11 -4.4375 11.1875 C-8 11 -8 11 -10 9 C-10.543379 3.02283105 -10.543379 3.02283105 -8.9375 0 C-5.86664787 -1.58495594 -3.27813225 -0.68036707 0 0 Z " fill="#3F515D" transform="translate(317,333)"/>
<path d="M0 0 C2.64 0 5.28 0 8 0 C8 0.66 8 1.32 8 2 C6.02 2 4.04 2 2 2 C2 2.99 2 3.98 2 5 C3.98 5 5.96 5 8 5 C8 5.66 8 6.32 8 7 C6.02 7 4.04 7 2 7 C2 7.99 2 8.98 2 10 C3.98 10 5.96 10 8 10 C8 10.66 8 11.32 8 12 C5.36 12 2.72 12 0 12 C0 8.04 0 4.08 0 0 Z " fill="#425864" transform="translate(357,332)"/>
<path d="M0 0 C2.64 0 5.28 0 8 0 C8 0.66 8 1.32 8 2 C6.02 2 4.04 2 2 2 C2 2.99 2 3.98 2 5 C3.98 5 5.96 5 8 5 C8 5.66 8 6.32 8 7 C6.02 7 4.04 7 2 7 C2 7.99 2 8.98 2 10 C3.98 10 5.96 10 8 10 C8 10.66 8 11.32 8 12 C5.36 12 2.72 12 0 12 C0 8.04 0 4.08 0 0 Z " fill="#3B525E" transform="translate(153,332)"/>
<path d="M0 0 C0.33 0.66 0.66 1.32 1 2 C3.64 1.67 6.28 1.34 9 1 C9 3.97 9 6.94 9 10 C9.66 10.33 10.32 10.66 11 11 C10.01 11 9.02 11 8 11 C7.67 10.34 7.34 9.68 7 9 C4.67843403 8.59270772 2.3431213 8.25561323 0 8 C0 7.01 0 6.02 0 5 C1.98 5 3.96 5 6 5 C6 4.34 6 3.68 6 3 C4.02 3 2.04 3 0 3 C0 2.01 0 1.02 0 0 Z " fill="#EBECED" transform="translate(322,334)"/>
<path d="M0 0 C0 0.66 0 1.32 0 2 C-0.969375 1.979375 -1.93875 1.95875 -2.9375 1.9375 C-5.87465895 1.64381501 -5.87465895 1.64381501 -7 3 C-7.04063832 4.66617115 -7.042721 6.33388095 -7 8 C-4.69 8 -2.38 8 0 8 C-0.33 8.99 -0.66 9.98 -1 11 C-6.4 11.36 -6.4 11.36 -8.875 9.875 C-10.52854531 7.11909116 -10.39365568 5.14924548 -10 2 C-7.64463991 -2.2950684 -4.23605512 -0.87918125 0 0 Z " fill="#495D6A" transform="translate(354,333)"/>
<path d="M0 0 C0.66 0.99 1.32 1.98 2 3 C-0.31 3 -2.62 3 -5 3 C-5 4.98 -5 6.96 -5 9 C-2.69 9 -0.38 9 2 9 C1.67 9.99 1.34 10.98 1 12 C-2.375 12.125 -2.375 12.125 -6 12 C-8 10 -8 10 -8.3125 6.5625 C-8 3 -8 3 -6.8125 1.0625 C-4.35526759 -0.37794659 -2.79836832 -0.4305182 0 0 Z " fill="#485A66" transform="translate(221,332)"/>
<path d="M0 0 C2.625 0.375 2.625 0.375 5 1 C5.04254356 2.99954746 5.04080783 5.00041636 5 7 C4 8 4 8 1.5 8.125 C-1 8 -1 8 -2 7 C-2.1875 4.5625 -2.1875 4.5625 -2 2 C-1.34 1.34 -0.68 0.68 0 0 Z " fill="#EFF0F1" transform="translate(430,334)"/>
<path d="M0 0 C2.64 0 5.28 0 8 0 C8 0.66 8 1.32 8 2 C6.02 2 4.04 2 2 2 C2 2.99 2 3.98 2 5 C3.98 5 5.96 5 8 5 C8 5.66 8 6.32 8 7 C6.02 7 4.04 7 2 7 C2 8.65 2 10.3 2 12 C1.34 12 0.68 12 0 12 C0 8.04 0 4.08 0 0 Z " fill="#4B5E69" transform="translate(416,332)"/>
<path d="M0 0 C3.875 1.75 3.875 1.75 5 4 C5.45375 3.34 5.9075 2.68 6.375 2 C6.91125 1.34 7.4475 0.68 8 0 C8.66 0 9.32 0 10 0 C9.38722388 2.96175123 8.74627478 4.38058783 7 7 C6.61500109 8.65549531 6.27206865 10.3222433 6 12 C5.34 12 4.68 12 4 12 C3.566875 10.4221875 3.566875 10.4221875 3.125 8.8125 C2.22774807 5.77181289 1.23576581 2.91287656 0 0 Z " fill="#4D616E" transform="translate(224,332)"/>
<path d="M0 0 C0.99 0 1.98 0 3 0 C1.65515286 4.04161955 -0.0505162 6.38678154 -3.125 9.3125 C-3.84945313 10.00988281 -4.57390625 10.70726562 -5.3203125 11.42578125 C-5.87460937 11.94527344 -6.42890625 12.46476562 -7 13 C-7.33 12.01 -7.66 11.02 -8 10 C-6.453125 7.51953125 -6.453125 7.51953125 -4.25 4.8125 C-3.53328125 3.91144531 -2.8165625 3.01039063 -2.078125 2.08203125 C-1.39234375 1.39496094 -0.7065625 0.70789063 0 0 Z " fill="#2D6070" transform="translate(490,451)"/>
<path d="M0 0 C3.3 0 6.6 0 10 0 C10 0.66 10 1.32 10 2 C8.68 2 7.36 2 6 2 C6 5.3 6 8.6 6 12 C5.34 12 4.68 12 4 12 C4 8.7 4 5.4 4 2 C2.68 2 1.36 2 0 2 C0 1.34 0 0.68 0 0 Z " fill="#485C6A" transform="translate(259,332)"/>
<path d="M0 0 C3.3 0 6.6 0 10 0 C10 0.66 10 1.32 10 2 C8.68 2 7.36 2 6 2 C6 5.3 6 8.6 6 12 C5.34 12 4.68 12 4 12 C4 8.7 4 5.4 4 2 C2.68 2 1.36 2 0 2 C0 1.34 0 0.68 0 0 Z " fill="#4E616C" transform="translate(404,332)"/>
<path d="M0 0 C2.31 0 4.62 0 7 0 C7 0.66 7 1.32 7 2 C5.35 2 3.7 2 2 2 C2 3.65 2 5.3 2 7 C3.32 7 4.64 7 6 7 C5.67 7.66 5.34 8.32 5 9 C4.01 8.67 3.02 8.34 2 8 C2 9.32 2 10.64 2 12 C1.34 12 0.68 12 0 12 C0 8.04 0 4.08 0 0 Z " fill="#40545E" transform="translate(440,332)"/>
<path d="M0 0 C0.99 0 1.98 0 3 0 C3 3.96 3 7.92 3 12 C2.34 12 1.68 12 1 12 C1 9.69 1 7.38 1 5 C0.34 5 -0.32 5 -1 5 C-1 5.66 -1 6.32 -1 7 C-1.99 6.67 -2.98 6.34 -4 6 C-3.34 6 -2.68 6 -2 6 C-1.855625 5.195625 -1.71125 4.39125 -1.5625 3.5625 C-1 1 -1 1 0 0 Z " fill="#3D5360" transform="translate(147,332)"/>
<path d="M0 0 C0.66 0 1.32 0 2 0 C2 9.57 2 19.14 2 29 C1.67 29 1.34 29 1 29 C0.97494385 28.32420898 0.9498877 27.64841797 0.92407227 26.95214844 C0.80789258 23.8845832 0.68526563 20.81730842 0.5625 17.75 C0.52318359 16.68652344 0.48386719 15.62304688 0.44335938 14.52734375 C0.40146484 13.50253906 0.35957031 12.47773438 0.31640625 11.421875 C0.27974854 10.47924805 0.24309082 9.53662109 0.20532227 8.56542969 C0.07866789 6.03452009 0.07866789 6.03452009 -0.58227539 3.78613281 C-1 2 -1 2 0 0 Z " fill="#29545D" transform="translate(250,283)"/>
<path d="M0 0 C0.33 0 0.66 0 1 0 C2.33257403 15.74487472 2.33257403 15.74487472 1 23 C0.34 23 -0.32 23 -1 23 C-1.1567564 15.28410183 -0.67453101 7.68483539 0 0 Z " fill="#1B464F" transform="translate(239,280)"/>
<path d="M0 0 C0.66 0 1.32 0 2 0 C2 3.3 2 6.6 2 10 C3.98 10 5.96 10 8 10 C8 10.66 8 11.32 8 12 C5.36 12 2.72 12 0 12 C0 8.04 0 4.08 0 0 Z " fill="#485D6A" transform="translate(385,332)"/>
<path d="M0 0 C0.66 0 1.32 0 2 0 C2 3.3 2 6.6 2 10 C3.98 10 5.96 10 8 10 C8 10.66 8 11.32 8 12 C5.36 12 2.72 12 0 12 C0 8.04 0 4.08 0 0 Z " fill="#415663" transform="translate(292,332)"/>
<path d="M0 0 C0.66 0 1.32 0 2 0 C2 3.3 2 6.6 2 10 C3.98 10 5.96 10 8 10 C8 10.66 8 11.32 8 12 C5.36 12 2.72 12 0 12 C0 8.04 0 4.08 0 0 Z " fill="#405664" transform="translate(282,332)"/>
<path d="M0 0 C0.66 0 1.32 0 2 0 C2 3.96 2 7.92 2 12 C1.67 12 1.34 12 1 12 C0.67 8.04 0.34 4.08 0 0 Z M-7 2 C-4.69 2 -2.38 2 0 2 C-0.33 2.99 -0.66 3.98 -1 5 C-2.98 5 -4.96 5 -7 5 C-7 4.01 -7 3.02 -7 2 Z " fill="#EBECED" transform="translate(136,332)"/>
<path d="M0 0 C0.99 0 1.98 0 3 0 C3.33 1.98 3.66 3.96 4 6 C3.67 6 3.34 6 3 6 C2.67 7.98 2.34 9.96 2 12 C1.34 12 0.68 12 0 12 C0 8.04 0 4.08 0 0 Z " fill="#455964" transform="translate(452,332)"/>
<path d="M0 0 C1.98 0 3.96 0 6 0 C4.68 0.33 3.36 0.66 2 1 C2.26676204 2.98491642 2.26676204 2.98491642 3 5 C3.99 5.33 4.98 5.66 6 6 C5.67 6.66 5.34 7.32 5 8 C4.01 7.67 3.02 7.34 2 7 C2 8.32 2 9.64 2 11 C1.34 11 0.68 11 0 11 C0 7.37 0 3.74 0 0 Z " fill="#394E5A" transform="translate(164,333)"/>
<path d="M0 0 C0.99 0 1.98 0 3 0 C3.79953138 3.28696233 4.09658936 4.71023192 3 8 C2.01 8 1.02 8 0 8 C-1.125 2.25 -1.125 2.25 0 0 Z " fill="#76868E" transform="translate(398,332)"/>
<path d="M0 0 C0.33 0.66 0.66 1.32 1 2 C-0.24493748 4.28974316 -1.52641528 6.44190034 -2.9375 8.625 C-3.32357422 9.23601562 -3.70964844 9.84703125 -4.10742188 10.4765625 C-5.06446326 11.9889242 -6.03132811 13.49506117 -7 15 C-7.74609375 13.359375 -7.74609375 13.359375 -8 11 C-6.34765625 8.203125 -6.34765625 8.203125 -4.0625 5.25 C-3.31097656 4.26515625 -2.55945313 3.2803125 -1.78515625 2.265625 C-0.90150391 1.14414063 -0.90150391 1.14414063 0 0 Z " fill="#336573" transform="translate(70,145)"/>
<path d="M0 0 C3.375 0.3125 3.375 0.3125 7 1 C9.1519437 4.22791555 9.20086443 5.28400809 9 9 C8.01 9 7.02 9 6 9 C5.7525 7.88625 5.505 6.7725 5.25 5.625 C4.38994661 1.95384802 4.38994661 1.95384802 1.875 0.5625 C1.25625 0.376875 0.6375 0.19125 0 0 Z " fill="#586871" transform="translate(429,332)"/>
<path d="M0 0 C1.32 0 2.64 0 4 0 C4 0.66 4 1.32 4 2 C3.34 2 2.68 2 2 2 C1.67 4.31 1.34 6.62 1 9 C0.34 9 -0.32 9 -1 9 C-1.66 9.66 -2.32 10.32 -3 11 C-2.69078116 9.54096742 -2.37751201 8.08279278 -2.0625 6.625 C-1.88847656 5.81289063 -1.71445313 5.00078125 -1.53515625 4.1640625 C-1 2 -1 2 0 0 Z " fill="#E3E5E6" transform="translate(175,331)"/>
<path d="M0 0 C0.33 0.66 0.66 1.32 1 2 C2.98 2 4.96 2 7 2 C6.67 2.99 6.34 3.98 6 5 C6 4.34 6 3.68 6 3 C4.02 3 2.04 3 0 3 C0 2.01 0 1.02 0 0 Z M0 5 C1.98 5 3.96 5 6 5 C5.01 6.485 5.01 6.485 4 8 C2.68 8 1.36 8 0 8 C0 7.01 0 6.02 0 5 Z " fill="#EBEBEC" transform="translate(191,334)"/>
<path d="M0 0 C2.33294775 -0.04241723 4.66702567 -0.04092937 7 0 C8 1 8 1 8.125 3.5 C8 6 8 6 7 7 C5.00041636 7.04080783 2.99954746 7.04254356 1 7 C2.32 6.34 3.64 5.68 5 5 C5 4.01 5 3.02 5 2 C3.35 2 1.7 2 0 2 C0 1.34 0 0.68 0 0 Z " fill="#2F4653" transform="translate(374,333)"/>
<path d="M0 0 C2.64 0 5.28 0 8 0 C8 0.33 8 0.66 8 1 C5.69 1 3.38 1 1 1 C0.67 2.65 0.34 4.3 0 6 C-1.65 5.67 -3.3 5.34 -5 5 C-4.67 4.01 -4.34 3.02 -4 2 C-2.68 2.66 -1.36 3.32 0 4 C0 2.68 0 1.36 0 0 Z " fill="#6AADAF" transform="translate(244,312)"/>
<path d="M0 0 C0.33 0 0.66 0 1 0 C1.12375 0.7425 1.2475 1.485 1.375 2.25 C1.86889456 4.97537272 1.86889456 4.97537272 3.125 7.125 C4 9 4 9 3 12 C2.01 12 1.02 12 0 12 C0 8.04 0 4.08 0 0 Z " fill="#C8CED1" transform="translate(341,332)"/>
<path d="M0 0 C0.66 0 1.32 0 2 0 C2 1.32 2 2.64 2 4 C3.32 4.66 4.64 5.32 6 6 C4.02 6 2.04 6 0 6 C0 6.66 0 7.32 0 8 C-0.66 8 -1.32 8 -2 8 C-1.47731534 5.23723823 -0.89130413 2.6739124 0 0 Z " fill="#495E69" transform="translate(396,336)"/>
<path d="M0 0 C3.43774463 1.14591488 4.17413159 1.95688598 6 5 C6 6.32 6 7.64 6 9 C5.34 9 4.68 9 4 9 C2 6 2 6 2 3 C1.34 3 0.68 3 0 3 C0 2.01 0 1.02 0 0 Z " fill="#455C69" transform="translate(139,333)"/>
<path d="M0 0 C2.64 0 5.28 0 8 0 C8 1.65 8 3.3 8 5 C7.34 4.67 6.68 4.34 6 4 C6 3.34 6 2.68 6 2 C4.02 2 2.04 2 0 2 C0 1.34 0 0.68 0 0 Z " fill="#EDEEEF" transform="translate(155,335)"/>
<path d="M0 0 C0.66 0 1.32 0 2 0 C1.49287967 3.71888239 0.88391785 6.73454239 -1 10 C-2.46726798 6.18510326 -1.43336419 3.70988378 0 0 Z " fill="#3D6C76" transform="translate(69,211)"/>
<path d="M0 0 C1.65 0 3.3 0 5 0 C5 1.32 5 2.64 5 4 C3.35 4 1.7 4 0 4 C0 2.68 0 1.36 0 0 Z " fill="#DFE1E4" transform="translate(442,334)"/>
<path d="M0 0 C1.65 0 3.3 0 5 0 C5 1.32 5 2.64 5 4 C3.35 4 1.7 4 0 4 C0 2.68 0 1.36 0 0 Z " fill="#E2E4E5" transform="translate(166,334)"/>
<path d="M0 0 C2.31 0.33 4.62 0.66 7 1 C7 1.66 7 2.32 7 3 C4 3 1 3 -2 3 C-1.34 2.01 -0.68 1.02 0 0 Z " fill="#576671" transform="translate(310,332)"/>
<path d="M0 0 C0.99 0.66 1.98 1.32 3 2 C3 2.66 3 3.32 3 4 C1.02 4.99 -0.96 5.98 -3 7 C-1.125 1.125 -1.125 1.125 0 0 Z " fill="#24444F" transform="translate(129,293)"/>
<path d="M0 0 C0.66 0.33 1.32 0.66 2 1 C-0.64 3.97 -3.28 6.94 -6 10 C-6 6.41087588 -5.33563446 5.89142971 -3 3.3125 C-2.443125 2.68988281 -1.88625 2.06726563 -1.3125 1.42578125 C-0.879375 0.95527344 -0.44625 0.48476562 0 0 Z " fill="#356573" transform="translate(88,121)"/>
<path d="M0 0 C2.475 0.495 2.475 0.495 5 1 C5 1.99 5 2.98 5 4 C3.35 4 1.7 4 0 4 C0 2.68 0 1.36 0 0 Z " fill="#E3E5E6" transform="translate(375,334)"/>
<path d="M0 0 C0.99 0.33 1.98 0.66 3 1 C0.69 3.31 -1.62 5.62 -4 8 C-4 4.09161134 -2.49432124 2.88405893 0 0 Z " fill="#294751" transform="translate(132,258)"/>
<path d="M0 0 C0.99 0 1.98 0 3 0 C1.75023244 3.65316671 1.32901247 4.78065836 -2 7 C-1.125 2.25 -1.125 2.25 0 0 Z " fill="#2A6470" transform="translate(508,425)"/>
<path d="M0 0 C0.33 0 0.66 0 1 0 C1 3.3 1 6.6 1 10 C0.67 9.01 0.34 8.02 0 7 C-0.66 7 -1.32 7 -2 7 C-1.34 4.69 -0.68 2.38 0 0 Z " fill="#FDFDFC" transform="translate(136,334)"/>
<path d="M0 0 C0 0.66 0 1.32 0 2 C-3.375 2.125 -3.375 2.125 -7 2 C-7.66 1.34 -8.32 0.68 -9 0 C-5.93109813 -1.53445094 -3.29905734 -0.54984289 0 0 Z " fill="#616F78" transform="translate(186,333)"/>
<path d="M0 0 C0.33 0.99 0.66 1.98 1 3 C-0.4375 5.6875 -0.4375 5.6875 -2 8 C-2.93423645 4.98968256 -3.04449911 4.13349732 -2 1 C-1.34 0.67 -0.68 0.34 0 0 Z " fill="#1B3C47" transform="translate(431,268)"/>
<path d="M0 0 C0.33 0.66 0.66 1.32 1 2 C0.06421005 4.35981813 -0.93347808 6.69631264 -2 9 C-2.97110486 5.97878489 -3.13617383 3.99536737 -2 1 C-1.34 0.67 -0.68 0.34 0 0 Z " fill="#468A90" transform="translate(537,359)"/>
</svg>
